# xmcd CD database file
# Copyright (C) 1997 Ti Kan
# 
# Track frame offsets:
#     150
#     16288
#     33288
#     48845
#     66738
#     86288
#     108700
#     131785
#     153780
#     177053
# 
# Disc length: 2666 seconds
# 
# Revision: 1
# Processed by: cddbd v1.4b41PL1 Copyright (c) Steve Scherf et al.
# Submitted via: DiscPlay 4.0.4
# 
DISCID=7b0a680a
DTITLE=Terri and Monica - Systa
DYEAR=1900
DGENRE=
TTITLE0=Uh Huh
TTITLE1=Over It
TTITLE2=Intentions
TTITLE3=Next Time
TTITLE4=I've Been Waiting
TTITLE5=I Need Your Love
TTITLE6=The Way You Make Me Feel
TTITLE7=Temptation
TTITLE8=Where Are You Now
TTITLE9=When the Tables Turn
EXTD=
EXTT0=
EXTT1=
EXTT2=
EXTT3=
EXTT4=
EXTT5=
EXTT6=
EXTT7=
EXTT8=
EXTT9=
PLAYORDER=
